<svg viewBox="-31 1 511 511.999" xmlns="http://www.w3.org/2000/svg"><path d="m112.449219 64.46875c0-2.878906 2.984375-4.371094 6.078125-4.371094h20.574218c11.089844 0 21.429688 3.625 21.429688 18.761719 0 8.742187-3.410156 14.5-9.0625 16.953125 6.503906 2.558594 10.980469 6.714844 10.980469 17.378906v2.238282c0 16.628906-9.273438 22.601562-21.324219 22.601562h-22.601562c-3.730469 0-6.074219-2.023438-6.074219-4.265625zm13.753906 25.90625h11.9375c5.757813 0 8.53125-3.730469 8.53125-9.167969 0-5.546875-3.199219-8.957031-8.636719-8.957031h-11.835937v18.125zm12.046875 35.5c6.5 0 10.339844-3.515625 10.339844-11.617188v-1.707031c0-8.316406-3.839844-11.300781-10.339844-11.300781h-12.046875v24.625zm0 0"/><path d="m172.363281 64.359375c0-2.984375 3.410157-4.261719 6.929688-4.261719 3.410156 0 6.929687 1.277344 6.929687 4.261719v69.300781c0 2.878906-3.519531 4.371094-6.929687 4.371094-3.519531 0-6.929688-1.492188-6.929688-4.371094zm0 0"/><path d="m205.089844 138.03125c-3.089844 0-6.074219-1.492188-6.074219-4.371094v-69.300781c0-2.984375 3.410156-4.261719 6.929687-4.261719 3.410157 0 6.929688 1.277344 6.929688 4.261719v61.519531h26.011719c2.773437 0 4.160156 2.984375 4.160156 6.074219 0 2.984375-1.386719 6.078125-4.160156 6.078125zm0 0"/><path d="m256.691406 138.03125c-3.09375 0-6.078125-1.492188-6.078125-4.371094v-69.300781c0-2.984375 3.414063-4.261719 6.929688-4.261719 3.414062 0 6.929687 1.277344 6.929687 4.261719v61.519531h26.015625c2.769531 0 4.15625 2.984375 4.15625 6.074219 0 2.984375-1.386719 6.078125-4.15625 6.078125zm0 0"/><path d="m363.832031 137.925781c-12.898437-.320312-22.601562-7.25-22.601562-13.222656 0-2.984375 2.667969-7.464844 5.96875-7.464844 4.050781 0 7.25 6.933594 16.632812 7.996094v-21.214844c-9.703125-3.625-20.683593-7.78125-20.683593-21.429687 0-13.539063 10.023437-19.402344 20.683593-20.789063v-2.984375c0-1.386718 1.597657-2.664062 3.625-2.664062 1.8125 0 3.625 1.277344 3.625 2.664062v2.773438c6.929688.210937 18.230469 2.234375 18.230469 8.421875 0 2.449219-1.703125 7.355469-5.648438 7.355469-2.984374 0-5.4375-3.414063-12.582031-3.945313v18.765625c9.488281 3.515625 20.152344 8.316406 20.152344 22.8125 0 13.113281-8.210937 20.683594-20.152344 22.601562v3.308594c0 1.386719-1.8125 2.664063-3.625 2.664063-2.027343 0-3.625-1.277344-3.625-2.664063zm.851563-48.085937v-16.097656c-5.328125.855468-8.527344 3.414062-8.527344 7.464843 0 4.691407 3.625 6.714844 8.527344 8.632813zm5.542968 16.738281v18.554687c4.691407-.960937 7.996094-3.734374 7.996094-8.742187.003906-5.226563-3.410156-7.785156-7.996094-9.8125zm0 0"/><path d="m304.433594 219.117188h-193.226563c-4.140625 0-7.5 3.355468-7.5 7.5 0 4.144531 3.359375 7.5 7.5 7.5h193.226563c4.144531 0 7.5-3.355469 7.5-7.5 0-4.144532-3.355469-7.5-7.5-7.5zm0 0"/><path d="m304.433594 281.511719h-193.226563c-4.140625 0-7.5 3.355469-7.5 7.5 0 4.140625 3.359375 7.5 7.5 7.5h193.226563c4.144531 0 7.5-3.359375 7.5-7.5 0-4.144531-3.355469-7.5-7.5-7.5zm0 0"/><path d="m304.433594 343.902344h-193.226563c-4.140625 0-7.5 3.359375-7.5 7.5 0 4.144531 3.359375 7.5 7.5 7.5h193.226563c4.144531 0 7.5-3.355469 7.5-7.5 0-4.140625-3.355469-7.5-7.5-7.5zm0 0"/><path d="m304.433594 406.296875h-193.226563c-4.140625 0-7.5 3.355469-7.5 7.5s3.359375 7.5 7.5 7.5h193.226563c4.144531 0 7.5-3.355469 7.5-7.5s-3.355469-7.5-7.5-7.5zm0 0"/><path d="m388.542969 219.117188h-48.617188c-4.140625 0-7.5 3.355468-7.5 7.5 0 4.144531 3.359375 7.5 7.5 7.5h48.617188c4.140625 0 7.5-3.355469 7.5-7.5 0-4.144532-3.359375-7.5-7.5-7.5zm0 0"/><path d="m388.542969 281.511719h-48.617188c-4.140625 0-7.5 3.355469-7.5 7.5 0 4.140625 3.359375 7.5 7.5 7.5h48.617188c4.140625 0 7.5-3.359375 7.5-7.5 0-4.144531-3.359375-7.5-7.5-7.5zm0 0"/><path d="m388.542969 343.902344h-48.617188c-4.140625 0-7.5 3.359375-7.5 7.5 0 4.144531 3.359375 7.5 7.5 7.5h48.617188c4.140625 0 7.5-3.355469 7.5-7.5 0-4.140625-3.359375-7.5-7.5-7.5zm0 0"/><path d="m408.390625 0h-368.542969c-21.695312 0-39.347656 17.652344-39.347656 39.347656v325.660156c0 17.730469 14.421875 32.152344 32.15625 32.152344h3.804688c4.140624 0 7.5-3.355468 7.5-7.5 0-4.140625-3.359376-7.5-7.5-7.5h-3.804688c-9.460938 0-17.15625-7.695312-17.15625-17.152344v-325.660156c0-13.425781 10.921875-24.347656 24.347656-24.347656 13.425782 0 24.347656 10.921875 24.347656 24.347656v450.574219c0 6.988281 4.746094 13.007813 11.546876 14.632813l29.441406 7.035156c2.289062.546875 4.707031.542968 6.992187 0l33.503907-8 33.476562 8c2.285156.546875 4.703125.542968 6.992188 0l33.496093-8 33.480469 8c2.289062.546875 4.707031.542968 6.996094 0l33.5-8 33.484375 8c2.289062.546875 4.703125.542968 6.992187 0l33.503906-8 33.480469 7.996094c1.144531.277343 2.324219.414062 3.503907.414062 1.175781 0 2.351562-.136719 3.496093-.410156l29.449219-7.035156c6.800781-1.625 11.546875-7.644532 11.546875-14.632813v-449.234375c0-22.433594-18.253906-40.6875-40.6875-40.6875zm25.652344 489.964844-29.46875 7.035156-33.488281-8c-2.289063-.546875-4.707032-.546875-6.992188 0l-33.503906 8-33.484375-8c-2.285157-.546875-4.703125-.546875-6.992188 0l-33.5 8-33.484375-8c-2.289062-.546875-4.707031-.546875-6.992187 0l-33.496094 8-33.476563-8c-1.144531-.273438-2.320312-.410156-3.496093-.410156s-2.351563.136718-3.496094.410156l-33.5 8-29.476563-7.078125v-450.574219c0-.632812-.019531-1.257812-.050781-1.882812-.007812-.203125-.023437-.40625-.039062-.609375-.023438-.421875-.054688-.839844-.09375-1.261719-.023438-.230469-.050781-.460938-.078125-.695312-.042969-.386719-.089844-.777344-.144532-1.160157-.035156-.234375-.070312-.46875-.109374-.699219-.0625-.390624-.132813-.777343-.207032-1.167968-.042968-.214844-.082031-.429688-.125-.644532-.09375-.445312-.199218-.882812-.304687-1.320312-.039063-.152344-.070313-.304688-.109375-.453125-.152344-.582031-.316406-1.160156-.492188-1.730469-.046875-.144531-.097656-.285156-.144531-.429687-.136719-.425781-.28125-.855469-.429687-1.277344-.074219-.203125-.15625-.40625-.234376-.609375-.132812-.355469-.273437-.714844-.417968-1.066406-.089844-.214844-.183594-.429688-.273438-.640625-.148437-.34375-.304687-.679688-.460937-1.015625-.097657-.207032-.195313-.414063-.296875-.621094-.171875-.351562-.355469-.703125-.539063-1.050781-.09375-.175781-.183593-.355469-.277343-.527344-.265626-.484375-.542969-.964844-.828126-1.433594-.019531-.035156-.035156-.066406-.054687-.101562-.304687-.5-.625-.992188-.949219-1.476563-.109375-.160156-.21875-.316406-.328125-.472656-.230469-.328125-.460937-.65625-.695312-.976562-.132813-.175782-.265625-.351563-.402344-.527344-.125-.164063-.246094-.332032-.375-.496094h337.65625c14.164063 0 25.6875 11.523438 25.6875 25.691406zm0 0"/></svg>